<?xml version="1.0" encoding="UTF-8" standalone="no"?>
<!DOCTYPE svg PUBLIC "-//W3C//DTD SVG 1.1//EN"
 "http://www.w3.org/Graphics/SVG/1.1/DTD/svg11.dtd">
<!-- Generated by graphviz version 2.38.0 (20140413.2041)
 -->
<!-- Title: %3 Pages: 1 -->
<svg width="879pt" height="231pt"
 viewBox="0.00 0.00 878.65 231.00" xmlns="http://www.w3.org/2000/svg" xmlns:xlink="http://www.w3.org/1999/xlink">
<g id="graph0" class="graph" transform="scale(1 1) rotate(0) translate(4 227)">
<title>%3</title>
<polygon fill="#3f3f3f" stroke="none" points="-4,4 -4,-227 874.646,-227 874.646,4 -4,4"/>
<text text-anchor="middle" x="435.323" y="-9.2" font-family="Times,serif" font-size="16.00" fill="white">Network Map</text>
<!-- R2 -->
<g id="node1" class="node"><title>R2</title>
<polygon fill="#006699" stroke="#006699" points="216.646,-223 140.646,-223 140.646,-150 216.646,-150 216.646,-223"/>
<text text-anchor="middle" x="178.646" y="-182.8" font-family="Helvetica,sans-Serif" font-size="14.00" fill="white">R2</text>
</g>
<!-- R5 -->
<g id="node2" class="node"><title>R5</title>
<polygon fill="#006699" stroke="#006699" points="277.646,-99 201.646,-99 201.646,-26 277.646,-26 277.646,-99"/>
<text text-anchor="middle" x="239.646" y="-58.8" font-family="Helvetica,sans-Serif" font-size="14.00" fill="white">R5</text>
</g>
<!-- R5&#45;&#45;R2 -->
<g id="edge1" class="edge"><title>R5&#45;&#45;R2</title>
<path fill="none" stroke="green" stroke-dasharray="5,2" d="M201.384,-89.0595C192.652,-96.9116 184.518,-106.337 179.646,-117 175.049,-127.061 173.66,-138.852 173.755,-149.788"/>
<text text-anchor="middle" x="229.646" y="-120.8" font-family="Courier,monospace" font-size="14.00" fill="white"> &#160;&#160;&#160;&#160;&#160;&#160;&#160;&#160;&#160;&#160;&#160;</text>
<text text-anchor="middle" x="144.755" y="-138.588" font-family="Courier,monospace" font-size="14.00" fill="white">Eth 0/1</text>
<text text-anchor="middle" x="172.384" y="-77.8595" font-family="Courier,monospace" font-size="14.00" fill="white">Eth 0/0</text>
</g>
<!-- R4 -->
<g id="node3" class="node"><title>R4</title>
<polygon fill="#006699" stroke="#006699" points="462.646,-223 386.646,-223 386.646,-150 462.646,-150 462.646,-223"/>
<text text-anchor="middle" x="424.646" y="-182.8" font-family="Helvetica,sans-Serif" font-size="14.00" fill="white">R4</text>
</g>
<!-- R5&#45;&#45;R4 -->
<g id="edge2" class="edge"><title>R5&#45;&#45;R4</title>
<path fill="none" stroke="green" stroke-dasharray="5,2" d="M267.293,-99.0535C277.508,-110.601 289.761,-122.797 302.646,-132 328.335,-150.349 361.314,-164.341 386.506,-173.405"/>
<text text-anchor="middle" x="352.646" y="-120.8" font-family="Courier,monospace" font-size="14.00" fill="white"> &#160;&#160;&#160;&#160;&#160;&#160;&#160;&#160;&#160;&#160;&#160;</text>
<text text-anchor="middle" x="357.506" y="-162.205" font-family="Courier,monospace" font-size="14.00" fill="white">Eth 0/1</text>
<text text-anchor="middle" x="238.293" y="-102.853" font-family="Courier,monospace" font-size="14.00" fill="white">Eth 0/1</text>
</g>
<!-- SW1 -->
<g id="node4" class="node"><title>SW1</title>
<polygon fill="#006699" stroke="#006699" points="653.146,-99 564.146,-99 564.146,-26 653.146,-26 653.146,-99"/>
<text text-anchor="middle" x="608.646" y="-58.8" font-family="Helvetica,sans-Serif" font-size="14.00" fill="white">SW1</text>
</g>
<!-- SW1&#45;&#45;R2 -->
<g id="edge5" class="edge"><title>SW1&#45;&#45;R2</title>
<path fill="none" stroke="green" stroke-dasharray="5,2" d="M564.136,-71.1493C525.063,-79.0283 467.476,-93.519 421.646,-117 412.07,-121.906 412.327,-127.307 402.646,-132 341.482,-161.649 262.772,-175.513 216.791,-181.481"/>
<text text-anchor="middle" x="471.646" y="-120.8" font-family="Courier,monospace" font-size="14.00" fill="white"> &#160;&#160;&#160;&#160;&#160;&#160;&#160;&#160;&#160;&#160;&#160;</text>
<text text-anchor="middle" x="245.791" y="-170.281" font-family="Courier,monospace" font-size="14.00" fill="white">Eth 0/0</text>
<text text-anchor="middle" x="535.136" y="-59.9493" font-family="Courier,monospace" font-size="14.00" fill="white">Eth 0/2</text>
</g>
<!-- SW1&#45;&#45;R4 -->
<g id="edge7" class="edge"><title>SW1&#45;&#45;R4</title>
<path fill="none" stroke="green" stroke-dasharray="5,2" d="M566.289,-99.0881C548.222,-114.147 530.23,-128.94 525.646,-132 505.841,-145.219 482.41,-157.801 463.105,-167.438"/>
<text text-anchor="middle" x="593.646" y="-120.8" font-family="Courier,monospace" font-size="14.00" fill="white"> &#160;&#160;&#160;&#160;&#160;&#160;&#160;&#160;&#160;&#160;&#160;</text>
<text text-anchor="middle" x="492.105" y="-156.238" font-family="Courier,monospace" font-size="14.00" fill="white">Eth 0/0</text>
<text text-anchor="middle" x="537.289" y="-102.888" font-family="Courier,monospace" font-size="14.00" fill="white">Eth 0/4</text>
</g>
<!-- R1 -->
<g id="node5" class="node"><title>R1</title>
<polygon fill="#006699" stroke="#006699" points="831.646,-223 755.646,-223 755.646,-150 831.646,-150 831.646,-223"/>
<text text-anchor="middle" x="793.646" y="-182.8" font-family="Helvetica,sans-Serif" font-size="14.00" fill="white">R1</text>
</g>
<!-- SW1&#45;&#45;R1 -->
<g id="edge4" class="edge"><title>SW1&#45;&#45;R1</title>
<path fill="none" stroke="green" stroke-dasharray="5,2" d="M653.156,-70.3219C685.612,-77.2779 728.935,-90.9144 758.646,-117 768.581,-125.723 776.066,-137.944 781.51,-149.652"/>
<text text-anchor="middle" x="820.646" y="-120.8" font-family="Courier,monospace" font-size="14.00" fill="white"> &#160;&#160;&#160;&#160;&#160;&#160;&#160;&#160;&#160;&#160;&#160;</text>
<text text-anchor="middle" x="752.51" y="-138.452" font-family="Courier,monospace" font-size="14.00" fill="white">Eth 0/0</text>
<text text-anchor="middle" x="682.156" y="-59.1219" font-family="Courier,monospace" font-size="14.00" fill="white">Eth 0/1</text>
</g>
<!-- R3 -->
<g id="node6" class="node"><title>R3</title>
<polygon fill="#006699" stroke="#006699" points="708.646,-223 632.646,-223 632.646,-150 708.646,-150 708.646,-223"/>
<text text-anchor="middle" x="670.646" y="-182.8" font-family="Helvetica,sans-Serif" font-size="14.00" fill="white">R3</text>
</g>
<!-- SW1&#45;&#45;R3 -->
<g id="edge6" class="edge"><title>SW1&#45;&#45;R3</title>
<path fill="none" stroke="green" stroke-dasharray="5,2" d="M637.881,-99.2785C641.821,-105.007 645.561,-111.023 648.646,-117 653.915,-127.212 658.239,-138.931 661.615,-149.755"/>
<text text-anchor="middle" x="704.646" y="-120.8" font-family="Courier,monospace" font-size="14.00" fill="white"> &#160;&#160;&#160;&#160;&#160;&#160;&#160;&#160;&#160;&#160;&#160;</text>
<text text-anchor="middle" x="632.615" y="-138.555" font-family="Courier,monospace" font-size="14.00" fill="white">Eth 0/0</text>
<text text-anchor="middle" x="608.881" y="-103.079" font-family="Courier,monospace" font-size="14.00" fill="white">Eth 0/3</text>
</g>
<!-- R6 -->
<g id="node7" class="node"><title>R6</title>
<polygon fill="#006699" stroke="#006699" points="93.6455,-99 17.6455,-99 17.6455,-26 93.6455,-26 93.6455,-99"/>
<text text-anchor="middle" x="55.6455" y="-58.8" font-family="Helvetica,sans-Serif" font-size="14.00" fill="white">R6</text>
</g>
<!-- R6&#45;&#45;R2 -->
<g id="edge3" class="edge"><title>R6&#45;&#45;R2</title>
<path fill="none" stroke="green" stroke-dasharray="5,2" d="M58,-99.1892C60.2301,-110.616 64.305,-122.702 71.6455,-132 88.8266,-153.762 117.187,-167.376 140.394,-175.422"/>
<text text-anchor="middle" x="121.646" y="-120.8" font-family="Courier,monospace" font-size="14.00" fill="white"> &#160;&#160;&#160;&#160;&#160;&#160;&#160;&#160;&#160;&#160;&#160;</text>
<text text-anchor="middle" x="111.394" y="-164.222" font-family="Courier,monospace" font-size="14.00" fill="white">Eth 0/2</text>
<text text-anchor="middle" x="29" y="-102.989" font-family="Courier,monospace" font-size="14.00" fill="white">Eth 0/1</text>
</g>
</g>
</svg>
